#!OML:ASF F:\VICON\USERDATA\INSTALL\rory3\rory3.ASF
:FULLY-SPECIFIED
:DEGREES
18
root -0.14800052064920982 18.102882241774342 -16.937259112265608 0.8605645640675932 -2.46575301683177 -5.7673257168969645
lfemur -34.26804114967475 1.6883181493943982 -13.30555344733742
ltibia 63.301891102361544
lfoot -2.0934595046699 -0.03784424204928527
ltoes -3.4839310988024037
rfemur -2.847836362062978 7.707832376159029 35.597035969411536
rtibia 36.98421807228168
rfoot -16.61291794165435 -9.346458539539556
rtoes 3.2301493371021737
lowerback 15.597454375230711 0.8517387772526251 5.276213565004909
upperback -1.115039906777499 2.0579757420399463 2.01434885334862
thorax -9.377334759150395 0.8315194579554709 -1.2935720408386675
lowerneck -17.42808615252403 -4.292771736096192 -2.0196589070738282
upperneck 16.737325551526833 -5.2989108937641225 1.0770721345322636
head 8.206875439347227 -2.645137342604033 0.06591083970351269
lclavicle -1.6751861253689564e-15 -3.5918678150058164e-15
lhumerus -48.562801989293504 -1.2745514126211632 89.54497949054978
lradius 68.2096672046375
lwrist 16.009586744303643
lhand -28.1694240172721 10.701281157842395
lfingers 7.125019999999999
lthumb -1.5493258366154756 40.64977716929783
rclavicle -1.6751861253689564e-15 -3.5918678150058164e-15
rhumerus -34.06590106819676 2.395841761968817 -92.21401320538324
rradius 73.00170283832713
rwrist -9.38470162514483
rhand -18.838196240892223 28.828232412377314
rfingers 7.125019999999999
rthumb 7.461330239095308 -1.0262819749828758
19
root -0.1534125699623094 18.01369161072422 -16.07368990613969 1.8653391721675086 -2.303763334246728 -6.281067066601062
lfemur -35.24677606393862 -1.3538821350089212 -11.712692078804261
ltibia 46.75705600319327
lfoot 0.39861986967858365 3.257638696188039
ltoes -1.2461111869821586
rfemur 1.4213628750444531 7.8207905916092955 36.52566968047982
rtibia 33.295423226826486
rfoot -17.708534418662143 -9.96250410755411
rtoes 0.6574852884741147
lowerback 14.265525729847475 1.1448068449359916 5.838886891732747
upperback -1.075998354167628 2.4830682151725942 1.9443204854970257
thorax -8.718979451193361 1.022887397650366 -1.7135065593919616
lowerneck -17.602157453770058 -4.4603694068107025 -1.9814558038459702
upperneck 16.386670726269745 -5.5017686596864435 1.0915206985130554
head 8.11643686303236 -2.747611188869679 0.043954976118439154
lclavicle -1.6751861098668111e-15 -3.591867797393633e-15
lhumerus -49.132866397731426 0.1315773018383446 88.8443163914681
lradius 65.92686218963499
lwrist 15.454910549759646
lhand -28.4992890731384 8.694163526055474
lfingers 7.125019999999999
lthumb -1.8678830358405252 38.64294850220812
rclavicle -1.6751861098668111e-15 -3.591867797393633e-15
rhumerus -32.200128423173034 4.057086912767448 -92.7009351036751
rradius 76.33945923465885
rwrist -10.615490513168488
rhand -18.97536445443157 30.133007332079043
rfingers 7.125019999999999
rthumb 7.328888192410742 0.2663840481547357
20
root -0.1383336123687937 17.806908860542453 -15.166014493349502 3.064612622223475 -2.9021102802515033 -6.782031066293707
lfemur -34.66635343181184 -4.3046948283333055 -9.793987838190514
ltibia 28.667219710837873
lfoot 0.4346728404712292 5.201973052722094
ltoes -9.218077229013364
rfemur 4.993331202569019 7.050392812388336 37.042834248694945
rtibia 31.199093943195663
rfoot -19.50404592676799 -9.397159364956824
rtoes -1.9847864618496827
lowerback 12.693892378986376 1.5982169313668066 6.326960852385637
upperback -1.2201522849332123 3.11231223192196 1.9237811229694863
thorax -8.112732422564365 1.3128303842709985 -2.067561370134417
lowerneck -18.220590584105054 -4.370166470345074 -1.6791566681973489
upperneck 16.312541232986174 -5.4508832483129845 0.7862201867451885
head 8.14204336250265 -2.703717818499345 -0.13403356527710347
lclavicle -1.6751860805900337e-15 -3.591867723312262e-15
lhumerus -49.91363945029865 1.1173663540779097 88.22805512107766
lradius 63.962411361669915
lwrist 13.615359850884857
lhand -28.7905358161498 6.420450089412538
lfingers 7.125019999999999
lthumb -2.149186215509375 36.369376491762495
rclavicle -1.6751860805900337e-15 -3.591867723312262e-15
rhumerus -30.143556124293042 4.436952860639615 -92.78773171847098
rradius 77.77620043124574
rwrist -11.064403681287416
rhand -20.407652200181623 28.433118788161224
rfingers 7.125019999999999
rthumb 5.946372034224733 -1.4984208355172512
21
root -0.07311823366168393 17.656187124884305 -13.19359812868212 3.3288729420931302 -3.152362986612477 -6.544192715593259
lfemur -32.442903524969225 -6.69468872615406 -9.844612916663841
ltibia 16.1907249734465
lfoot -2.005411340804132 7.016659183899302
ltoes -7.1851830287727605
rfemur 8.89984235569777 7.03670638541194 36.67029014088861
rtibia 30.665337612284844
rfoot -19.395536506563193 -8.353642992087327
rtoes -7.326947781626391
lowerback 11.610252552251097 1.8050580456044907 6.371070103446655
upperback -1.5886724813620579 3.263544594868427 1.903509125653861
thorax -7.546634687361243 1.3527922454794434 -2.0413689046368164
lowerneck -18.3194049629221 -4.480050817676082 -1.5622478493037308
upperneck 16.324249911852757 -5.892656379952699 1.1380507326450886
head 8.19109191416612 -2.744214315994979 -0.10105991289860683
lclavicle -1.6748086101886868e-15 -3.591617554391157e-15
lhumerus -51.182748814988 2.2951306545613885 87.6016596641344
lradius 61.75281896344083
lwrist 10.727413105423555
lhand -28.67076044324266 10.794831786270665
lfingers 7.125019999999999
lthumb -1.7133146075252574 41.010205077905624
rclavicle -1.676002487976499e-15 -3.5924452102279235e-15
rhumerus -28.690453820528784 4.073104418116688 -92.86142779334818
rradius 78.39246522332871
rwrist -10.995718758169328
rhand -19.68510995949355 29.058491834190413
rfingers 7.125019999999999
rthumb 6.743587567288987 -0.9568795262927198
22
root 0.009956048350470773 17.425789933194004 -11.443405411466179 2.917513292514341 -3.049618525511211 -6.026791733207416
lfemur -31.57176673886049 -4.369269610639606 -11.97834777793386
ltibia 19.100604252192174
lfoot -1.9287159287660414 3.8791752646371425
ltoes -6.753585757327646
rfemur 11.6432637759254 6.777157453586613 35.79904337664986
rtibia 34.86622993796598
rfoot -18.01968908763199 -6.386212364788044
rtoes -12.251869175597486
lowerback 10.94513699846082 1.903864724101543 6.053342478830594
upperback -1.5569508514490733 3.292005613163459 1.6148122915541716
thorax -7.154834119019473 1.402096111690422 -2.0084328002591496
lowerneck -17.87948142718265 -4.743390750290178 -1.6310945598594286
upperneck 16.44808706378607 -6.369673545538675 1.5346855786569407
head 8.216570483951871 -2.932891210524578 -0.03194861293642931
lclavicle -1.6740366730881949e-15 -3.591070978172717e-15
lhumerus -52.225753340847156 3.6545809503501347 86.72972023811793
lradius 59.3096882665191
lwrist 5.910060520418792
lhand -28.040262141324188 11.987559512638589
lfingers 7.125019999999999
lthumb -1.2976478124027329 42.16243646901619
rclavicle -1.677556535237958e-15 -3.593544064326216e-15
rhumerus -28.43962035696743 2.8555656145947994 -92.71881303005368
rradius 78.57731097568522
rwrist -10.473753424514527
rhand -19.52910874571548 28.594002892195196
rfingers 7.125019999999999
rthumb 6.727806911767117 -1.2311889718756281
